<?xml version="1.0" standalone="no"?>
<!DOCTYPE svg PUBLIC "-//W3C//DTD SVG 20010904//EN"
 "http://www.w3.org/TR/2001/REC-SVG-20010904/DTD/svg10.dtd">
<svg version="1.0" xmlns="http://www.w3.org/2000/svg"
 width="390.000000pt" height="203.000000pt" viewBox="0 0 390.000000 203.000000"
 preserveAspectRatio="xMidYMid meet">
<metadata>
Created by potrace 1.16, written by Peter Selinger 2001-2019
</metadata>
<g transform="translate(0.000000,203.000000) scale(0.100000,-0.100000)"
fill="#000000" stroke="none">
<path d="M0 1276 c0 -748 0 -755 20 -753 20 1 21 4 33 87 3 14 5 5 6 -20 2
-71 4 -72 127 -69 63 1 121 -3 138 -10 26 -11 28 -10 23 9 -10 39 5 19 34 -45
50 -112 61 -105 -176 -105 l-205 0 0 -185 0 -185 1950 0 1950 0 0 185 0 185
-140 0 c-161 0 -155 -5 -123 103 l18 58 120 -3 120 -3 3 288 2 288 -22 -5 -23
-6 23 11 22 12 0 459 0 458 -1950 0 -1950 0 0 -754z m413 564 c-15 -6 -21 -15
-17 -25 7 -18 20 -20 27 -2 3 6 6 -41 6 -105 1 -114 0 -117 -21 -120 -13 -2
-35 -1 -50 1 l-28 3 0 99 c0 59 4 100 11 105 6 3 8 17 5 30 -6 23 -4 24 41 23
39 0 44 -2 26 -9z m998 -204 c2 -334 3 -320 -25 -327 -14 -4 -38 -4 -52 0
l-25 6 0 113 c1 342 -1 310 24 314 12 2 34 1 50 -1 l27 -3 1 -102z m-820 -28
c0 -18 3 -54 5 -79 4 -45 3 -47 -23 -50 -16 -2 -40 -3 -55 -1 -28 3 -28 4 -28
83 l0 79 50 0 c50 0 50 0 51 -32z m2779 -48 c0 -75 -1 -78 -25 -82 -70 -14
-83 5 -77 109 l4 52 49 -1 49 0 0 -78z m164 -3 c3 -12 6 -61 6 -109 l0 -88
-38 0 c-21 0 -47 -7 -58 -15 -23 -17 -43 -20 -26 -3 8 8 12 50 12 124 l0 113
28 3 c45 5 70 -3 76 -25z m140 -27 c26 -9 26 -11 26 -115 0 -119 -2 -122 -69
-78 l-42 27 3 80 c3 76 4 81 28 87 14 4 26 7 27 8 1 1 13 -3 27 -9z m-2914
-146 l0 -95 -35 -15 c-71 -29 -75 -25 -75 79 0 50 4 97 8 104 4 6 28 13 52 16
25 2 46 4 48 5 1 1 2 -41 2 -94z m820 -69 l0 -105 30 -2 c17 -1 38 -2 47 -2
10 -1 20 9 24 24 l7 25 1 -27 c1 -24 5 -28 29 -28 19 0 37 -10 53 -27 18 -21
19 -23 3 -10 -14 12 -44 19 -91 22 -67 4 -151 29 -196 58 -20 13 -22 21 -19
96 l4 81 54 0 54 0 0 -105z m465 -375 c21 0 22 -5 28 -127 2 -71 6 -135 8
-143 3 -10 -5 -16 -23 -18 -26 -3 -28 -7 -28 -45 0 -26 3 -37 9 -29 6 10 31
13 92 11 l84 -2 4 29 4 29 6 -30 6 -30 73 0 c65 0 72 2 73 20 1 16 3 16 6 -4
6 -29 60 -94 116 -138 27 -21 28 -22 13 -57 l-15 -36 -288 0 -288 0 -78 73
c-73 68 -79 77 -113 167 -39 104 -57 170 -50 177 3 3 8 -8 11 -23 7 -32 63
-164 76 -178 4 -5 12 7 17 25 l9 34 8 -27 c5 -19 14 -28 27 -28 15 0 18 3 11
13 -6 6 -8 34 -6 61 4 47 3 48 -21 44 -21 -4 -25 -1 -28 29 -4 30 0 37 25 49
15 8 43 14 60 12 30 -3 32 -6 35 -45 3 -40 1 -43 -22 -43 -24 0 -25 -2 -23
-59 l1 -59 61 -4 c63 -3 75 3 75 39 0 16 -7 22 -27 25 -19 2 -28 9 -27 21 0 9
1 49 2 87 3 98 22 89 22 -10 l0 -80 40 0 c49 0 52 8 48 150 l-3 105 -39 3
c-34 3 -38 1 -32 -15 5 -15 4 -15 -10 2 -14 19 -14 20 5 23 15 2 21 11 22 30
l1 27 11 -27 c7 -19 18 -28 32 -28z m1301 -345 c3 -11 15 -25 27 -30 35 -16
32 -49 -13 -125 l-42 -70 -323 0 -323 0 -5 26 c-6 34 11 98 33 121 9 11 23 30
30 42 8 15 15 20 19 12 12 -19 256 -36 310 -21 22 5 27 14 32 51 l6 44 1 -52
2 -52 126 0 c82 0 130 -4 140 -12 10 -8 14 -8 14 0 0 6 -7 14 -16 18 -8 3 -20
15 -25 27 -5 11 -21 39 -35 61 l-27 40 32 -30 c17 -16 34 -39 37 -50z m-1936
-25 c0 -5 7 -10 15 -10 8 0 15 5 15 10 0 6 14 10 30 10 21 0 30 -5 30 -16 0
-8 4 -13 9 -9 5 3 35 -21 66 -52 31 -32 73 -75 93 -95 l37 -38 -138 0 c-116 0
-143 3 -173 19 -50 27 -63 49 -64 102 0 47 27 88 49 74 6 -3 11 -1 11 4 0 6 5
11 10 11 6 0 10 -4 10 -10z m-362 -25 c26 3 58 8 70 11 15 3 21 1 17 -6 -10
-16 24 -107 52 -141 14 -16 24 -32 22 -34 -3 -2 -46 -5 -96 -6 -72 -1 -95 2
-107 14 -9 8 -32 21 -51 27 -28 9 -35 17 -35 36 0 31 15 61 49 97 21 23 27 25
29 12 3 -13 12 -15 50 -10z m-413 -25 c-3 -5 -2 -10 4 -10 5 0 11 6 14 13 3 6
10 -1 16 -17 7 -17 30 -49 51 -73 22 -23 40 -47 40 -53 0 -6 -24 -10 -55 -10
-63 0 -98 18 -121 62 -14 27 -13 32 6 63 12 19 28 35 36 35 9 0 12 -4 9 -10z"/>
</g>
</svg>
